<?xml version="1.0" encoding="UTF-8"?>
<svg width="650pt" height="700pt" version="1.1" viewBox="0 0 700 700" xmlns="http://www.w3.org/2000/svg">
 <path d="m587.84 263.94h-2.9414l-74.57 0.17969-3.6133 0.050781c-11.441 0.90234-20.477 10.512-20.453 22.211 0 12.293 9.9648 22.234 22.262 22.285h79.863c11.48-1.0039 20.492-10.641 20.465-22.375-0.027344-11.891-9.2773-21.625-21.012-22.352zm-108.05-69.273 0.050781-0.050781 53.605-53.492 2.8242-2.875c7.4062-8.7695 6.9102-21.98-1.3633-30.254-8.4141-8.375-21.867-8.7305-30.699-0.95313l-2.0508 2.0859-52.602 52.816-2.5195 2.5469c-7.4453 8.7422-7.0508 21.879 1.2344 30.164 8.6992 8.6914 22.812 8.6914 31.52 0.011718zm-123.37-160.5c-11.914 0-21.676 9.2773-22.414 20.973l0.011719 2.9531 0.21484 74.469v3.6016c0.95313 11.469 10.562 20.477 22.246 20.477 12.32 0 22.297-9.9648 22.297-22.246v-0.10156l0.039063-75.652 0.007812-4.0312c-1.0195-11.48-10.68-20.441-22.402-20.441zm-91.801 128.84-53.531-53.492-2.875-2.8633c-8.8086-7.3672-22.004-6.9219-30.289 1.3633-8.4258 8.4141-8.7422 21.891-0.98047 30.66l2.0742 2.0859 52.883 52.5 2.5586 2.5469c8.7812 7.457 21.953 7.0117 30.215-1.2227 8.7188-8.7422 8.7188-22.793 0.027343-31.488zm-58.52 145.42c11.48-0.89062 20.504-10.5 20.504-22.195-0.027344-12.332-9.9766-22.246-22.273-22.285l-79.891-0.003906c-11.469 1.0039-20.465 10.641-20.441 22.336 0 11.926 9.2656 21.637 21 22.375h2.9414l74.57-0.24219h3.5898zm26.941 69.477-0.0625 0.089843-53.582 53.504-2.8398 2.8242c-7.3828 8.8086-6.9219 22.004 1.3633 30.254 8.4375 8.3984 21.867 8.7578 30.699 1.0039l2.0742-2.1016 52.59-52.816 2.5312-2.5312c7.4453-8.7578 7.0391-21.941-1.2344-30.176-8.7422-8.6914-22.82-8.6914-31.539-0.050781zm145.54 58.559c-0.91797-11.453-10.551-20.477-22.234-20.477-12.332 0-22.297 9.9648-22.297 22.246v0.089844l-0.039063 75.664 0.011719 4.0352c1.0195 11.43 10.652 20.426 22.398 20.426 11.914 0 21.637-9.2891 22.398-20.973v-2.9531l-0.24219-74.469zm155.23-4.5938-52.895-52.5-2.5312-2.5469c-8.7695-7.457-21.953-7.0508-30.227 1.2344-8.707 8.6914-8.7188 22.781-0.011719 31.488l0.078125 0.089844 53.52 53.504 2.875 2.8008c8.832 7.4219 22.02 6.9609 30.289-1.3125 8.4258-8.4492 8.7422-21.879 1.0039-30.672z"/>
</svg>
